<svg data-v-fde0c5aa="" xmlns="http://www.w3.org/2000/svg" viewBox="0 0 300 300" class="iconLeft"><!----><defs data-v-fde0c5aa=""><!----></defs><rect data-v-fde0c5aa="" fill="#FBF3EF" x="0" y="0" width="300px" height="300px" class="logo-background-square"></rect><defs data-v-fde0c5aa=""><!----></defs><g data-v-fde0c5aa="" id="c829f55d-da75-42c9-9199-6d2852ae1c74" fill="#2F190E" transform="matrix(4.8443716336906375,0,0,4.8443716336906375,121.45096885097254,111.34191542573785)"><path d="M8.67 3.78L8.67 9.58L8.67 9.58Q8.67 11.35 7.74 12.26L7.74 12.26L7.74 12.26Q6.80 13.16 5.04 13.16L5.04 13.16L5.04 13.16Q3.28 13.16 2.35 12.25L2.35 12.25L2.35 12.25Q1.41 11.34 1.41 9.58L1.41 9.58L1.41 3.78L2.53 3.78L2.53 9.30L2.53 9.30Q2.53 10.75 3.14 11.43L3.14 11.43L3.14 11.43Q3.75 12.11 5.04 12.11L5.04 12.11L5.04 12.11Q6.33 12.11 6.94 11.43L6.94 11.43L6.94 11.43Q7.55 10.75 7.55 9.30L7.55 9.30L7.55 3.78L8.67 3.78ZM14.62 5.88L14.62 5.88Q15.12 5.88 15.39 6.02L15.39 6.02L15.16 7.11L15.16 7.11Q14.83 6.93 14.28 6.93L14.28 6.93L14.28 6.93Q13.83 6.93 13.40 7.19L13.40 7.19L13.40 7.19Q12.98 7.45 12.71 7.97L12.71 7.97L12.71 7.97Q12.43 8.50 12.43 9.24L12.43 9.24L12.43 13.02L11.31 13.02L11.31 6.02L12.22 6.02L12.38 7.17L12.38 7.17Q12.96 5.88 14.62 5.88L14.62 5.88ZM20.50 11.59L20.89 12.53L20.89 12.53Q20.19 13.16 19.08 13.16L19.08 13.16L19.08 13.16Q18.23 13.16 17.69 12.70L17.69 12.70L17.69 12.70Q17.15 12.24 17.14 11.28L17.14 11.28L17.14 6.99L15.74 6.99L15.74 6.02L17.14 6.02L17.14 4.34L18.26 4.03L18.26 6.02L20.85 6.02L20.85 6.99L18.26 6.99L18.26 11.09L18.26 11.09Q18.26 11.59 18.54 11.85L18.54 11.85L18.54 11.85Q18.83 12.11 19.31 12.11L19.31 12.11L19.31 12.11Q19.98 12.11 20.50 11.59L20.50 11.59ZM25.87 5.88L25.87 5.88Q27.06 5.88 27.83 6.57L27.83 6.57L27.83 6.57Q28.60 7.25 28.60 8.54L28.60 8.54L28.60 13.02L27.48 13.02L27.48 8.93L27.48 8.93Q27.48 7.84 27.01 7.35L27.01 7.35L27.01 7.35Q26.54 6.86 25.76 6.86L25.76 6.86L25.76 6.86Q25.21 6.86 24.72 7.11L24.72 7.11L24.72 7.11Q24.22 7.36 23.91 7.92L23.91 7.92L23.91 7.92Q23.59 8.47 23.59 9.31L23.59 9.31L23.59 13.02L22.47 13.02L22.47 2.80L23.59 2.80L23.59 7.07L23.59 7.07Q23.94 6.47 24.54 6.17L24.54 6.17L24.54 6.17Q25.13 5.88 25.87 5.88L25.87 5.88Z"></path></g><defs data-v-fde0c5aa=""><linearGradient data-v-fde0c5aa="" gradientTransform="rotate(25)" id="e511d2e2-7bf1-4321-be87-eabafec3f00f" x1="0%" y1="0%" x2="100%" y2="0%"><stop data-v-fde0c5aa="" offset="0%" stop-color="#A92580" stop-opacity="1"></stop><stop data-v-fde0c5aa="" offset="100%" stop-color="#F7BC00" stop-opacity="1"></stop></linearGradient></defs><g data-v-fde0c5aa="" id="275d89e4-2cc3-4baf-8211-f6f0115c4739" stroke="none" fill="url(#e511d2e2-7bf1-4321-be87-eabafec3f00f)" transform="matrix(2.352547896649312,0,0,2.352547896649312,40,112.359233653611)"><path d="M16 1c8.271 0 15 6.729 15 15s-6.729 15-15 15S1 24.271 1 16 7.729 1 16 1m0-1C7.163 0 0 7.163 0 16s7.163 16 16 16 16-7.163 16-16S24.837 0 16 0z"></path><path d="M16 7.045L24.955 16 16 24.955 7.045 16 16 7.045m0-1.414L5.631 16 16 26.369 26.369 16 16 5.631z"></path><path d="M16 12.538L19.462 16 16 19.462 12.538 16 16 12.538m0-1.414L11.124 16 16 20.876 20.876 16 16 11.124z"></path></g><!----></svg>